<?xml version="1.0" encoding="utf-8"?>
<!-- Generator: Adobe Illustrator 16.0.0, SVG Export Plug-In . SVG Version: 6.00 Build 0)  -->
<!DOCTYPE svg PUBLIC "-//W3C//DTD SVG 1.1//EN" "http://www.w3.org/Graphics/SVG/1.1/DTD/svg11.dtd">
<svg version="1.1" id="Ebene_1" xmlns="http://www.w3.org/2000/svg" xmlns:xlink="http://www.w3.org/1999/xlink" x="0px" y="0px"
	 width="194.4px" height="194.4px" viewBox="0 0 194.4 194.4" enable-background="new 0 0 194.4 194.4" xml:space="preserve">
<image overflow="visible" enable-background="new    " width="616" height="402" id="imagecccbe8bacc" xlink:href="78973B5E.png"  transform="matrix(0.24 0 0 -0.24 28.7996 161.7595)">
</image>
<g id="xtick_1">
	<g id="line2d_1">
		<g>
			<g>
				<path id="mdc367b70c5" stroke="#000000" stroke-width="0.8" stroke-linejoin="round" d="M28.808,161.578v3.5"/>
			</g>
		</g>
	</g>
	<g id="text_1">
		<text transform="matrix(1 0 0 1 27.1404 172.8728)" font-family="'ArialMT'" font-size="6">0</text>
	</g>
</g>
<g id="xtick_2">
	<g id="line2d_2">
		<g>
			<g>
				<path id="mdc367b70c5_1_" stroke="#000000" stroke-width="0.8" stroke-linejoin="round" d="M51.063,161.578v3.5"/>
			</g>
		</g>
	</g>
	<g id="text_2">
		<text transform="matrix(1 0 0 1 49.3948 172.8728)" font-family="'ArialMT'" font-size="6">5</text>
	</g>
</g>
<g id="xtick_3">
	<g id="line2d_3">
		<g>
			<g>
				<path id="mdc367b70c5_2_" stroke="#000000" stroke-width="0.8" stroke-linejoin="round" d="M73.318,161.578v3.5"/>
			</g>
		</g>
	</g>
	<g id="text_3">
		<text transform="matrix(1 0 0 1 69.9812 172.8728)" font-family="'ArialMT'" font-size="6">10</text>
	</g>
</g>
<g id="xtick_4">
	<g id="line2d_4">
		<g>
			<g>
				<path id="mdc367b70c5_3_" stroke="#000000" stroke-width="0.8" stroke-linejoin="round" d="M95.572,161.578v3.5"/>
			</g>
		</g>
	</g>
	<g id="text_4">
		<text transform="matrix(1 0 0 1 92.2356 172.8728)" font-family="'ArialMT'" font-size="6">15</text>
	</g>
</g>
<g id="xtick_5">
	<g id="line2d_5">
		<g>
			<g>
				<path id="mdc367b70c5_4_" stroke="#000000" stroke-width="0.8" stroke-linejoin="round" d="M117.827,161.578v3.5"/>
			</g>
		</g>
	</g>
	<g id="text_5">
		<text transform="matrix(1 0 0 1 114.49 172.8728)" font-family="'ArialMT'" font-size="6">20</text>
	</g>
</g>
<g id="xtick_6">
	<g id="line2d_6">
		<g>
			<g>
				<path id="mdc367b70c5_5_" stroke="#000000" stroke-width="0.8" stroke-linejoin="round" d="M140.081,161.578v3.5"/>
			</g>
		</g>
	</g>
	<g id="text_6">
		<text transform="matrix(1 0 0 1 136.7449 172.8728)" font-family="'ArialMT'" font-size="6">25</text>
	</g>
</g>
<g id="xtick_7">
	<g id="line2d_7">
		<g>
			<g>
				<path id="mdc367b70c5_6_" stroke="#000000" stroke-width="0.8" stroke-linejoin="round" d="M162.336,161.578v3.5"/>
			</g>
		</g>
	</g>
	<g id="text_7">
		<text transform="matrix(1 0 0 1 158.9988 172.8728)" font-family="'ArialMT'" font-size="6">30</text>
	</g>
</g>
<g id="xtick_8">
	<g id="line2d_8">
		<g>
			<g>
				<path id="mdc367b70c5_7_" stroke="#000000" stroke-width="0.8" stroke-linejoin="round" d="M184.59,161.578v3.5"/>
			</g>
		</g>
	</g>
	<g id="text_8">
		<text transform="matrix(1 0 0 1 181.2527 172.8728)" font-family="'ArialMT'" font-size="6">35</text>
	</g>
</g>
<g id="text_9">
	<g transform="translate(80.569375 185.325562)">
		<text transform="matrix(1 0 0 1 2.136230e-004 -0.7994)" font-family="'ArialMT'" font-size="6">W</text>
		<text transform="matrix(1 0 0 1 5.6633 -0.7994)" font-family="'ArialMT'" font-size="6">i</text>
		<text transform="matrix(1 0 0 1 6.9963 -0.7994)" font-family="'ArialMT'" font-size="6">n</text>
		<text transform="matrix(1 0 0 1 10.3332 -0.7994)" font-family="'ArialMT'" font-size="6">d</text>
		<text transform="matrix(1 0 0 1 13.6701 -0.7994)" font-family="'ArialMT'" font-size="6"> </text>
		<text transform="matrix(1 0 0 1 15.3371 -0.7994)" font-family="'ArialMT'" font-size="6">s</text>
		<text transform="matrix(1 0 0 1 18.3376 -0.7994)" font-family="'ArialMT'" font-size="6">p</text>
		<text transform="matrix(1 0 0 1 21.6736 -0.7994)" font-family="'ArialMT'" font-size="6">e</text>
		<text transform="matrix(1 0 0 1 25.0114 -0.7994)" font-family="'ArialMT'" font-size="6">e</text>
		<text transform="matrix(1 0 0 1 28.3474 -0.7994)" font-family="'ArialMT'" font-size="6">d</text>
		<text transform="matrix(1 0 0 1 31.6853 -0.7994)" font-family="'ArialMT'" font-size="6"> </text>
		<text transform="matrix(1 0 0 1 33.3513 -0.7994)" font-family="'ArialMT'" font-size="6">(</text>
		<text transform="matrix(1 0 0 1 35.3493 -0.7994)" font-family="'ArialMT'" font-size="6">m</text>
		<text transform="matrix(1 0 0 1 40.3474 -0.7994)" font-family="'ArialMT'" font-size="6"> </text>
		<text transform="matrix(1 0 0 1 42.0154 -0.7994)" font-family="'ArialMT'" font-size="6">s</text>
		<text transform="matrix(1 0 0 1 50.2068 -0.7994)" font-family="'ArialMT'" font-size="6">)</text>
		<text transform="matrix(1 0 0 1 52.2048 -0.7994)" font-family="'ArialMT'" font-size="12"> </text>
		<text transform="matrix(1 0 0 1 45.1189 -4.9811)" font-family="'ArialMT'" font-size="4.2">−</text>
		<text transform="matrix(1 0 0 1 47.572 -4.9811)" font-family="'ArialMT'" font-size="4.2">1</text>
	</g>
</g>
<g id="ytick_1">
	<g id="line2d_9">
		<g>
			<g>
				<path id="m141d45f451" stroke="#000000" stroke-width="0.8" stroke-linejoin="round" d="M28.808,161.578h-3.5"/>
			</g>
		</g>
	</g>
	<g id="text_10">
		<text transform="matrix(1 0 0 1 18.4719 163.7253)" font-family="'ArialMT'" font-size="6">0</text>
	</g>
</g>
<g id="ytick_2">
	<g id="line2d_10">
		<g>
			<g>
				<path id="m141d45f451_1_" stroke="#000000" stroke-width="0.8" stroke-linejoin="round" d="M28.808,144.546h-3.5"/>
			</g>
		</g>
	</g>
	<g id="text_11">
		<text transform="matrix(1 0 0 1 18.4719 146.6921)" font-family="'ArialMT'" font-size="6">2</text>
	</g>
</g>
<g id="ytick_3">
	<g id="line2d_11">
		<g>
			<g>
				<path id="m141d45f451_2_" stroke="#000000" stroke-width="0.8" stroke-linejoin="round" d="M28.808,127.512h-3.5"/>
			</g>
		</g>
	</g>
	<g id="text_12">
		<text transform="matrix(1 0 0 1 18.4719 129.6589)" font-family="'ArialMT'" font-size="6">4</text>
	</g>
</g>
<g id="ytick_4">
	<g id="line2d_12">
		<g>
			<g>
				<path id="m141d45f451_3_" stroke="#000000" stroke-width="0.8" stroke-linejoin="round" d="M28.808,110.479h-3.5"/>
			</g>
		</g>
	</g>
	<g id="text_13">
		<text transform="matrix(1 0 0 1 18.4719 112.6257)" font-family="'ArialMT'" font-size="6">6</text>
	</g>
</g>
<g id="ytick_5">
	<g id="line2d_13">
		<g>
			<g>
				<path id="m141d45f451_4_" stroke="#000000" stroke-width="0.8" stroke-linejoin="round" d="M28.808,93.446h-3.5"/>
			</g>
		</g>
	</g>
	<g id="text_14">
		<text transform="matrix(1 0 0 1 18.4719 95.5925)" font-family="'ArialMT'" font-size="6">8</text>
	</g>
</g>
<g id="ytick_6">
	<g id="line2d_14">
		<g>
			<g>
				<path id="m141d45f451_5_" stroke="#000000" stroke-width="0.8" stroke-linejoin="round" d="M28.808,76.413h-3.5"/>
			</g>
		</g>
	</g>
	<g id="text_15">
		<text transform="matrix(1 0 0 1 15.135 78.5593)" font-family="'ArialMT'" font-size="6">10</text>
	</g>
</g>
<g id="ytick_7">
	<g id="line2d_15">
		<g>
			<g>
				<path id="m141d45f451_6_" stroke="#000000" stroke-width="0.8" stroke-linejoin="round" d="M28.808,59.38h-3.5"/>
			</g>
		</g>
	</g>
	<g id="text_16">
		<text transform="matrix(1 0 0 1 15.135 61.5261)" font-family="'ArialMT'" font-size="6">12</text>
	</g>
</g>
<g id="ytick_8">
	<g id="line2d_16">
		<g>
			<g>
				<path id="m141d45f451_7_" stroke="#000000" stroke-width="0.8" stroke-linejoin="round" d="M28.808,42.346h-3.5"/>
			</g>
		</g>
	</g>
	<g id="text_17">
		<text transform="matrix(1 0 0 1 15.135 44.4929)" font-family="'ArialMT'" font-size="6">14</text>
	</g>
</g>
<g id="ytick_9">
	<g id="line2d_17">
		<g>
			<g>
				<path id="m141d45f451_8_" stroke="#000000" stroke-width="0.8" stroke-linejoin="round" d="M28.808,25.313h-3.5"/>
			</g>
		</g>
	</g>
	<g id="text_18">
		<text transform="matrix(1 0 0 1 15.135 27.4607)" font-family="'ArialMT'" font-size="6">16</text>
	</g>
</g>
<g id="ytick_10">
	<g id="line2d_18">
		<g>
			<g>
				<path id="m141d45f451_9_" stroke="#000000" stroke-width="0.8" stroke-linejoin="round" d="M28.808,8.28h-3.5"/>
			</g>
		</g>
	</g>
	<g id="text_19">
		<text transform="matrix(1 0 0 1 15.135 10.4275)" font-family="'ArialMT'" font-size="6">18</text>
	</g>
</g>
<g id="text_20">
	<text transform="matrix(6.123234e-017 -1 1 6.123234e-017 9.8728 120.9451)" font-family="'ArialMT'" font-size="6">Significant wave height (m)</text>
</g>
<g>
	<defs>
		<rect id="SVGID_1_" x="28.808" y="8.28" width="155.781" height="153.298"/>
	</defs>
	<clipPath id="SVGID_2_">
		<use xlink:href="#SVGID_1_"  overflow="visible"/>
	</clipPath>
	
		<path clip-path="url(#SVGID_2_)" fill="none" stroke="#000000" stroke-width="1.5" stroke-linecap="square" stroke-linejoin="round" d="
		M31.034,156.612l4.451-0.627l4.451-0.354l4.45-0.559l4.451-0.922l4.451-1.126l4.451-1.23l4.45-1.589l4.451-1.56l4.451-1.997
		l4.45-2.21l4.451-2.438l4.451-2.487l4.451-2.708l4.45-3.067l4.451-3.115l4.451-3.075l4.45-3.793l4.451-3.638l4.451-4.174
		l4.451-2.339l4.45-3.9l4.451-2.894l4.451-5.208l4.45-1.438l4.451-1.58l4.451-3.497l4.451,12.818l4.45-10.479"/>
</g>
<g>
	<defs>
		<rect id="SVGID_3_" x="28.808" y="8.28" width="155.781" height="153.298"/>
	</defs>
	<clipPath id="SVGID_4_">
		<use xlink:href="#SVGID_3_"  overflow="visible"/>
	</clipPath>
	
		<path clip-path="url(#SVGID_4_)" fill="none" stroke="#0000FF" stroke-width="1.5" stroke-linejoin="round" stroke-dasharray="5.55,2.4" d="
		M28.808,156.402l4.451-0.155l4.451-0.409l4.451-0.634l4.45-0.846l4.451-1.05l4.451-1.246l4.45-1.438l4.451-1.626l4.451-1.81
		l4.451-1.991l4.45-2.169l4.451-2.346l4.451-2.519l4.45-2.69l4.451-2.86l4.451-3.028l4.451-3.195l4.45-3.36l4.451-3.524l4.451-3.687
		l4.45-3.849l4.451-4.008l4.451-4.168l4.451-4.326l4.45-4.483l4.451-4.64l4.451-4.795l4.45-4.949l4.451-5.104l4.451-5.257
		l4.451-5.408l4.45-5.561l4.451-5.711l4.451-5.861"/>
</g>
<path fill="none" stroke="#000000" stroke-width="0.8" stroke-linecap="square" d="M28.808,161.578V8.28"/>
<path fill="none" stroke="#000000" stroke-width="0.8" stroke-linecap="square" d="M28.808,161.578H184.59"/>
<g id="patch_5">
	<path opacity="0.8" fill="#FFFFFF" stroke="#CCCCCC" enable-background="new    " d="M33.009,40.048h80.88c0.801,0,1.2-0.4,1.2-1.2
		V12.48c0-0.8-0.399-1.2-1.2-1.2h-80.88c-0.8,0-1.2,0.4-1.2,1.2v26.367C31.808,39.647,32.209,40.048,33.009,40.048z"/>
</g>
<g id="PathCollection_1">
	<g>
		<g>
			<path id="m3ef2cb91ae" fill="#808080" stroke="#808080" stroke-linejoin="round" d="M40.209,17.981
				c0.419,0,0.821-0.167,1.118-0.464c0.297-0.296,0.463-0.698,0.463-1.118c0-0.419-0.166-0.821-0.463-1.117
				c-0.297-0.297-0.699-0.464-1.118-0.464s-0.821,0.167-1.118,0.464c-0.296,0.296-0.463,0.698-0.463,1.117
				c0,0.42,0.167,0.822,0.463,1.118C39.387,17.814,39.79,17.981,40.209,17.981z"/>
		</g>
	</g>
</g>
<g id="text_21">
	<g transform="translate(51.00875 17.974687)">
		<text transform="matrix(1 0 0 1 2.746582e-004 -0.7035)" font-family="'ArialMT'" font-size="6">D</text>
		<text transform="matrix(1 0 0 1 4.3333 -0.7035)" font-family="'ArialMT'" font-size="6">a</text>
		<text transform="matrix(1 0 0 1 7.6702 -0.7035)" font-family="'ArialMT'" font-size="6">t</text>
		<text transform="matrix(1 0 0 1 9.3372 -0.7035)" font-family="'ArialMT'" font-size="6">a</text>
		<text transform="matrix(1 0 0 1 12.6741 -0.7035)" font-family="'ArialMT'" font-size="6">s</text>
		<text transform="matrix(1 0 0 1 15.6741 -0.7035)" font-family="'ArialMT'" font-size="6">e</text>
		<text transform="matrix(1 0 0 1 19.011 -0.7035)" font-family="'ArialMT'" font-size="6">t</text>
		<text transform="matrix(1 0 0 1 20.678 -0.7035)" font-family="'ArialMT'" font-size="6"> </text>
		<text transform="matrix(1 0 0 1 22.345 -0.7035)" font-family="'ArialMT'" font-size="12"> </text>
		<text transform="matrix(1 0 0 1 22.345 -0.7035)" font-family="'Arial-ItalicMT'" font-size="6">E</text>
	</g>
</g>
<g id="line2d_21">
	<path fill="none" stroke="#000000" stroke-width="1.5" stroke-linecap="square" stroke-linejoin="round" d="M34.209,24.447h12"/>
</g>
<g id="line2d_22">
</g>
<g id="text_22">
	<g transform="translate(51.00875 26.547187)">
		<text transform="matrix(1 0 0 1 2.746582e-004 -0.6255)" font-family="'ArialMT'" font-size="6">M</text>
		<text transform="matrix(1 0 0 1 4.9983 -0.6255)" font-family="'ArialMT'" font-size="6">e</text>
		<text transform="matrix(1 0 0 1 8.3352 -0.6255)" font-family="'ArialMT'" font-size="6">d</text>
		<text transform="matrix(1 0 0 1 11.6721 -0.6255)" font-family="'ArialMT'" font-size="6">i</text>
		<text transform="matrix(1 0 0 1 13.0052 -0.6255)" font-family="'ArialMT'" font-size="6">a</text>
		<text transform="matrix(1 0 0 1 16.3421 -0.6255)" font-family="'ArialMT'" font-size="6">n</text>
		<text transform="matrix(1 0 0 1 19.679 -0.6255)" font-family="'ArialMT'" font-size="6"> </text>
		<text transform="matrix(1 0 0 1 28.0774 -0.6255)" font-family="'ArialMT'" font-size="6">|</text>
		<text transform="matrix(1 0 0 1 33.638 -0.6255)" font-family="'ArialMT'" font-size="6"> </text>
		<text transform="matrix(1 0 0 1 35.305 -0.6255)" font-family="'ArialMT'" font-size="6">o</text>
		<text transform="matrix(1 0 0 1 38.6419 -0.6255)" font-family="'ArialMT'" font-size="6">f</text>
		<text transform="matrix(1 0 0 1 40.3089 -0.6255)" font-family="'ArialMT'" font-size="6"> </text>
		<text transform="matrix(1 0 0 1 41.9759 -0.6255)" font-family="'ArialMT'" font-size="6">d</text>
		<text transform="matrix(1 0 0 1 45.3128 -0.6255)" font-family="'ArialMT'" font-size="6">a</text>
		<text transform="matrix(1 0 0 1 48.6502 -0.6255)" font-family="'ArialMT'" font-size="6">t</text>
		<text transform="matrix(1 0 0 1 50.3162 -0.6255)" font-family="'ArialMT'" font-size="6">a</text>
		<text transform="matrix(1 0 0 1 53.6541 -0.6255)" font-family="'ArialMT'" font-size="6">s</text>
		<text transform="matrix(1 0 0 1 56.6541 -0.6255)" font-family="'ArialMT'" font-size="6">e</text>
		<text transform="matrix(1 0 0 1 59.99 -0.6255)" font-family="'ArialMT'" font-size="6">t</text>
		<text transform="matrix(1 0 0 1 61.658 -0.6255)" font-family="'ArialMT'" font-size="12"> </text>
		<text transform="matrix(1 0 0 1 21.346 -0.6255)" font-family="'Arial-ItalicMT'" font-size="6">H</text>
		<text transform="matrix(1 0 0 1 29.636 -0.6255)" font-family="'Arial-ItalicMT'" font-size="6">V</text>
		<text transform="matrix(1 0 0 1 33.638 -0.6255)" font-family="'ArialMT'" font-size="12"> </text>
		<text transform="matrix(1 0 0 1 25.679 1.1664)" font-family="'Arial-ItalicMT'" font-size="4.2">s</text>
	</g>
</g>
<g id="line2d_23">
	<path fill="none" stroke="#0000FF" stroke-width="1.5" stroke-linejoin="round" stroke-dasharray="5.55,2.4" d="M34.209,33.687h12"
		/>
</g>
<g id="line2d_24">
</g>
<g id="text_23">
	<g transform="translate(51.00875 35.787187)">
		<text transform="matrix(1 0 0 1 2.746582e-004 -0.6253)" font-family="'ArialMT'" font-size="6">M</text>
		<text transform="matrix(1 0 0 1 4.9983 -0.6253)" font-family="'ArialMT'" font-size="6">e</text>
		<text transform="matrix(1 0 0 1 8.3352 -0.6253)" font-family="'ArialMT'" font-size="6">d</text>
		<text transform="matrix(1 0 0 1 11.6721 -0.6253)" font-family="'ArialMT'" font-size="6">i</text>
		<text transform="matrix(1 0 0 1 13.0052 -0.6253)" font-family="'ArialMT'" font-size="6">a</text>
		<text transform="matrix(1 0 0 1 16.3421 -0.6253)" font-family="'ArialMT'" font-size="6">n</text>
		<text transform="matrix(1 0 0 1 19.679 -0.6253)" font-family="'ArialMT'" font-size="6"> </text>
		<text transform="matrix(1 0 0 1 28.0774 -0.6253)" font-family="'ArialMT'" font-size="6">|</text>
		<text transform="matrix(1 0 0 1 33.638 -0.6253)" font-family="'ArialMT'" font-size="6"> </text>
		<text transform="matrix(1 0 0 1 35.305 -0.6253)" font-family="'ArialMT'" font-size="6">o</text>
		<text transform="matrix(1 0 0 1 38.6419 -0.6253)" font-family="'ArialMT'" font-size="6">f</text>
		<text transform="matrix(1 0 0 1 40.3089 -0.6253)" font-family="'ArialMT'" font-size="6"> </text>
		<text transform="matrix(1 0 0 1 41.9759 -0.6253)" font-family="'ArialMT'" font-size="6">m</text>
		<text transform="matrix(1 0 0 1 46.9744 -0.6253)" font-family="'ArialMT'" font-size="6">o</text>
		<text transform="matrix(1 0 0 1 50.3103 -0.6253)" font-family="'ArialMT'" font-size="6">d</text>
		<text transform="matrix(1 0 0 1 53.6482 -0.6253)" font-family="'ArialMT'" font-size="6">e</text>
		<text transform="matrix(1 0 0 1 56.9842 -0.6253)" font-family="'ArialMT'" font-size="6">l</text>
		<text transform="matrix(1 0 0 1 58.3181 -0.6253)" font-family="'ArialMT'" font-size="12"> </text>
		<text transform="matrix(1 0 0 1 21.346 -0.6253)" font-family="'Arial-ItalicMT'" font-size="6">H</text>
		<text transform="matrix(1 0 0 1 29.636 -0.6253)" font-family="'Arial-ItalicMT'" font-size="6">V</text>
		<text transform="matrix(1 0 0 1 33.638 -0.6253)" font-family="'ArialMT'" font-size="12"> </text>
		<text transform="matrix(1 0 0 1 25.679 1.1667)" font-family="'Arial-ItalicMT'" font-size="4.2">s</text>
	</g>
</g>
</svg>
