<?xml version="1.0" encoding="utf-8"?>
<!-- Generator: Adobe Illustrator 16.0.0, SVG Export Plug-In . SVG Version: 6.00 Build 0)  -->
<!DOCTYPE svg PUBLIC "-//W3C//DTD SVG 1.1//EN" "http://www.w3.org/Graphics/SVG/1.1/DTD/svg11.dtd">
<svg version="1.1" id="Ebene_1" xmlns="http://www.w3.org/2000/svg" xmlns:xlink="http://www.w3.org/1999/xlink" x="0px" y="0px"
	 width="504px" height="360px" viewBox="0 0 504 360" enable-background="new 0 0 504 360" xml:space="preserve">
<path fill="#FFFFFF" d="M0,360h504V0H0V360z"/>
<path id="m1e8240595a" stroke="#000000" stroke-width="0.8" stroke-linejoin="round" d="M41.83,159.88v3.5"/>
<text transform="matrix(1 0 0 1 40.1619 171.1748)" font-family="'ArialMT'" font-size="6">0</text>
<path id="m1e8240595a_1_" stroke="#000000" stroke-width="0.8" stroke-linejoin="round" d="M64.8,159.88v3.5"/>
<text transform="matrix(1 0 0 1 63.1316 171.1748)" font-family="'ArialMT'" font-size="6">5</text>
<path id="m1e8240595a_2_" stroke="#000000" stroke-width="0.8" stroke-linejoin="round" d="M87.77,159.88v3.5"/>
<text transform="matrix(1 0 0 1 84.4329 171.1748)" font-family="'ArialMT'" font-size="6">10</text>
<path id="m1e8240595a_3_" stroke="#000000" stroke-width="0.8" stroke-linejoin="round" d="M110.74,159.88v3.5"/>
<text transform="matrix(1 0 0 1 107.4021 171.1748)" font-family="'ArialMT'" font-size="6">15</text>
<path id="m1e8240595a_4_" stroke="#000000" stroke-width="0.8" stroke-linejoin="round" d="M133.709,159.88v3.5"/>
<text transform="matrix(1 0 0 1 130.3718 171.1748)" font-family="'ArialMT'" font-size="6">20</text>
<path id="m1e8240595a_5_" stroke="#000000" stroke-width="0.8" stroke-linejoin="round" d="M156.679,159.88v3.5"/>
<text transform="matrix(1 0 0 1 153.3416 171.1748)" font-family="'ArialMT'" font-size="6">25</text>
<path id="m1e8240595a_6_" stroke="#000000" stroke-width="0.8" stroke-linejoin="round" d="M179.649,159.88v3.5"/>
<text transform="matrix(1 0 0 1 176.3113 171.1748)" font-family="'ArialMT'" font-size="6">30</text>
<text transform="matrix(1 0 0 1 51.0105 182.8271)" font-family="'ArialMT'" font-size="6">T</text>
<text transform="matrix(1 0 0 1 54.6755 182.8271)" font-family="'ArialMT'" font-size="6">h</text>
<text transform="matrix(1 0 0 1 58.0125 182.8271)" font-family="'ArialMT'" font-size="6">e</text>
<text transform="matrix(1 0 0 1 61.3494 182.8271)" font-family="'ArialMT'" font-size="6">o</text>
<text transform="matrix(1 0 0 1 64.6863 182.8271)" font-family="'ArialMT'" font-size="6">r</text>
<text transform="matrix(1 0 0 1 66.6843 182.8271)" font-family="'ArialMT'" font-size="6">e</text>
<text transform="matrix(1 0 0 1 70.0212 182.8271)" font-family="'ArialMT'" font-size="6">t</text>
<text transform="matrix(1 0 0 1 71.6882 182.8271)" font-family="'ArialMT'" font-size="6">i</text>
<text transform="matrix(1 0 0 1 73.0212 182.8271)" font-family="'ArialMT'" font-size="6">c</text>
<text transform="matrix(1 0 0 1 76.0212 182.8271)" font-family="'ArialMT'" font-size="6">a</text>
<text transform="matrix(1 0 0 1 79.3582 182.8271)" font-family="'ArialMT'" font-size="6">l</text>
<text transform="matrix(1 0 0 1 80.6912 182.8271)" font-family="'ArialMT'" font-size="6"> </text>
<text transform="matrix(1 0 0 1 82.3582 182.8271)" font-family="'ArialMT'" font-size="6">q</text>
<text transform="matrix(1 0 0 1 85.6951 182.8271)" font-family="'ArialMT'" font-size="6">u</text>
<text transform="matrix(1 0 0 1 89.032 182.8271)" font-family="'ArialMT'" font-size="6">a</text>
<text transform="matrix(1 0 0 1 92.3689 182.8271)" font-family="'ArialMT'" font-size="6">n</text>
<text transform="matrix(1 0 0 1 95.7058 182.8271)" font-family="'ArialMT'" font-size="6">t</text>
<text transform="matrix(1 0 0 1 97.3728 182.8271)" font-family="'ArialMT'" font-size="6">i</text>
<text transform="matrix(1 0 0 1 98.7058 182.8271)" font-family="'ArialMT'" font-size="6">l</text>
<text transform="matrix(1 0 0 1 100.0388 182.8271)" font-family="'ArialMT'" font-size="6">e</text>
<text transform="matrix(1 0 0 1 103.3757 182.8271)" font-family="'ArialMT'" font-size="6">s</text>
<text transform="matrix(1 0 0 1 106.3757 182.8271)" font-family="'ArialMT'" font-size="6"> </text>
<text transform="matrix(1 0 0 1 108.0427 182.8271)" font-family="'ArialMT'" font-size="6">o</text>
<text transform="matrix(1 0 0 1 111.3796 182.8271)" font-family="'ArialMT'" font-size="6">f</text>
<text transform="matrix(1 0 0 1 113.0466 182.8271)" font-family="'ArialMT'" font-size="6"> </text>
<text transform="matrix(1 0 0 1 114.7136 182.8271)" font-family="'ArialMT'" font-size="6">w</text>
<text transform="matrix(1 0 0 1 119.0466 182.8271)" font-family="'ArialMT'" font-size="6">i</text>
<text transform="matrix(1 0 0 1 120.3796 182.8271)" font-family="'ArialMT'" font-size="6">n</text>
<text transform="matrix(1 0 0 1 123.7166 182.8271)" font-family="'ArialMT'" font-size="6">d</text>
<text transform="matrix(1 0 0 1 127.0535 182.8271)" font-family="'ArialMT'" font-size="6"> </text>
<text transform="matrix(1 0 0 1 128.7205 182.8271)" font-family="'ArialMT'" font-size="6">s</text>
<text transform="matrix(1 0 0 1 131.7205 182.8271)" font-family="'ArialMT'" font-size="6">p</text>
<text transform="matrix(1 0 0 1 135.0574 182.8271)" font-family="'ArialMT'" font-size="6">e</text>
<text transform="matrix(1 0 0 1 138.3943 182.8271)" font-family="'ArialMT'" font-size="6">e</text>
<text transform="matrix(1 0 0 1 141.7312 182.8271)" font-family="'ArialMT'" font-size="6">d</text>
<text transform="matrix(1 0 0 1 145.0681 182.8271)" font-family="'ArialMT'" font-size="6"> </text>
<text transform="matrix(1 0 0 1 146.7351 182.8271)" font-family="'ArialMT'" font-size="6">(</text>
<text transform="matrix(1 0 0 1 148.7332 182.8271)" font-family="'ArialMT'" font-size="6">m</text>
<text transform="matrix(1 0 0 1 153.7312 182.8271)" font-family="'ArialMT'" font-size="6"> </text>
<text transform="matrix(1 0 0 1 155.3982 182.8271)" font-family="'ArialMT'" font-size="6">s</text>
<text transform="matrix(1 0 0 1 163.5901 182.8271)" font-family="'ArialMT'" font-size="6">)</text>
<text transform="matrix(1 0 0 1 165.5881 182.8271)" font-family="'ArialMT'" font-size="12"> </text>
<text transform="matrix(1 0 0 1 158.5032 178.6455)" font-family="'ArialMT'" font-size="4.2">−</text>
<text transform="matrix(1 0 0 1 160.9558 178.6455)" font-family="'ArialMT'" font-size="4.2">1</text>
<path id="mbd9bc756a7" stroke="#000000" stroke-width="0.8" stroke-linejoin="round" d="M35.251,153.203h-3.5"/>
<text transform="matrix(1 0 0 1 24.9143 155.3506)" font-family="'ArialMT'" font-size="6">0</text>
<path id="mbd9bc756a7_1_" stroke="#000000" stroke-width="0.8" stroke-linejoin="round" d="M35.251,134.276h-3.5"/>
<text transform="matrix(1 0 0 1 24.9143 136.4229)" font-family="'ArialMT'" font-size="6">5</text>
<path id="mbd9bc756a7_2_" stroke="#000000" stroke-width="0.8" stroke-linejoin="round" d="M35.251,115.349h-3.5"/>
<text transform="matrix(1 0 0 1 21.5774 117.4971)" font-family="'ArialMT'" font-size="6">10</text>
<path id="mbd9bc756a7_3_" stroke="#000000" stroke-width="0.8" stroke-linejoin="round" d="M35.251,96.422h-3.5"/>
<text transform="matrix(1 0 0 1 21.5774 98.5693)" font-family="'ArialMT'" font-size="6">15</text>
<path id="mbd9bc756a7_4_" stroke="#000000" stroke-width="0.8" stroke-linejoin="round" d="M35.251,77.496h-3.5"/>
<text transform="matrix(1 0 0 1 21.5774 79.6436)" font-family="'ArialMT'" font-size="6">20</text>
<path id="mbd9bc756a7_5_" stroke="#000000" stroke-width="0.8" stroke-linejoin="round" d="M35.251,58.569h-3.5"/>
<text transform="matrix(1 0 0 1 21.5774 60.7168)" font-family="'ArialMT'" font-size="6">25</text>
<path id="mbd9bc756a7_6_" stroke="#000000" stroke-width="0.8" stroke-linejoin="round" d="M35.251,39.642h-3.5"/>
<text transform="matrix(1 0 0 1 21.5774 41.79)" font-family="'ArialMT'" font-size="6">30</text>
<path id="mbd9bc756a7_7_" stroke="#000000" stroke-width="0.8" stroke-linejoin="round" d="M35.251,20.715h-3.5"/>
<text transform="matrix(1 0 0 1 21.5774 22.8633)" font-family="'ArialMT'" font-size="6">35</text>
<text transform="matrix(6.123234e-017 -1 1 6.123234e-017 15.4583 139.5498)" font-family="'ArialMT'" font-size="6">O</text>
<text transform="matrix(6.123234e-017 -1 1 6.123234e-017 15.4583 134.8828)" font-family="'ArialMT'" font-size="6">r</text>
<text transform="matrix(6.123234e-017 -1 1 6.123234e-017 15.4583 132.8848)" font-family="'ArialMT'" font-size="6">d</text>
<text transform="matrix(6.123234e-017 -1 1 6.123234e-017 15.4583 129.5479)" font-family="'ArialMT'" font-size="6">e</text>
<text transform="matrix(6.123234e-017 -1 1 6.123234e-017 15.4583 126.2109)" font-family="'ArialMT'" font-size="6">r</text>
<text transform="matrix(6.123234e-017 -1 1 6.123234e-017 15.4583 124.2129)" font-family="'ArialMT'" font-size="6">e</text>
<text transform="matrix(6.123234e-017 -1 1 6.123234e-017 15.4583 120.876)" font-family="'ArialMT'" font-size="6">d</text>
<text transform="matrix(6.123234e-017 -1 1 6.123234e-017 15.4583 117.5391)" font-family="'ArialMT'" font-size="6"> </text>
<text transform="matrix(6.123234e-017 -1 1 6.123234e-017 15.4583 115.8721)" font-family="'ArialMT'" font-size="6">v</text>
<text transform="matrix(6.123234e-017 -1 1 6.123234e-017 15.4583 112.8721)" font-family="'ArialMT'" font-size="6">a</text>
<text transform="matrix(6.123234e-017 -1 1 6.123234e-017 15.4583 109.5352)" font-family="'ArialMT'" font-size="6">l</text>
<text transform="matrix(6.123234e-017 -1 1 6.123234e-017 15.4583 108.2021)" font-family="'ArialMT'" font-size="6">u</text>
<text transform="matrix(6.123234e-017 -1 1 6.123234e-017 15.4583 104.8652)" font-family="'ArialMT'" font-size="6">e</text>
<text transform="matrix(6.123234e-017 -1 1 6.123234e-017 15.4583 101.5283)" font-family="'ArialMT'" font-size="6">s</text>
<text transform="matrix(6.123234e-017 -1 1 6.123234e-017 15.4583 98.5283)" font-family="'ArialMT'" font-size="6"> </text>
<text transform="matrix(6.123234e-017 -1 1 6.123234e-017 15.4583 96.8613)" font-family="'ArialMT'" font-size="6">o</text>
<text transform="matrix(6.123234e-017 -1 1 6.123234e-017 15.4583 93.5244)" font-family="'ArialMT'" font-size="6">f</text>
<text transform="matrix(6.123234e-017 -1 1 6.123234e-017 15.4583 91.8574)" font-family="'ArialMT'" font-size="6"> </text>
<text transform="matrix(6.123234e-017 -1 1 6.123234e-017 15.4583 90.1904)" font-family="'ArialMT'" font-size="6">w</text>
<text transform="matrix(6.123234e-017 -1 1 6.123234e-017 15.4583 85.8574)" font-family="'ArialMT'" font-size="6">i</text>
<text transform="matrix(6.123234e-017 -1 1 6.123234e-017 15.4583 84.5244)" font-family="'ArialMT'" font-size="6">n</text>
<text transform="matrix(6.123234e-017 -1 1 6.123234e-017 15.4583 81.1875)" font-family="'ArialMT'" font-size="6">d</text>
<text transform="matrix(6.123234e-017 -1 1 6.123234e-017 15.4583 77.8506)" font-family="'ArialMT'" font-size="6"> </text>
<text transform="matrix(6.123234e-017 -1 1 6.123234e-017 15.4583 76.1836)" font-family="'ArialMT'" font-size="6">s</text>
<text transform="matrix(6.123234e-017 -1 1 6.123234e-017 15.4583 73.1836)" font-family="'ArialMT'" font-size="6">p</text>
<text transform="matrix(6.123234e-017 -1 1 6.123234e-017 15.4583 69.8467)" font-family="'ArialMT'" font-size="6">e</text>
<text transform="matrix(6.123234e-017 -1 1 6.123234e-017 15.4583 66.5098)" font-family="'ArialMT'" font-size="6">e</text>
<text transform="matrix(6.123234e-017 -1 1 6.123234e-017 15.4583 63.1729)" font-family="'ArialMT'" font-size="6">d</text>
<text transform="matrix(6.123234e-017 -1 1 6.123234e-017 15.4583 59.8359)" font-family="'ArialMT'" font-size="6"> </text>
<text transform="matrix(6.123234e-017 -1 1 6.123234e-017 15.4583 58.1689)" font-family="'ArialMT'" font-size="6">(</text>
<text transform="matrix(6.123234e-017 -1 1 6.123234e-017 15.4583 56.1709)" font-family="'ArialMT'" font-size="6">m</text>
<text transform="matrix(6.123234e-017 -1 1 6.123234e-017 15.4583 51.1729)" font-family="'ArialMT'" font-size="6"> </text>
<text transform="matrix(6.123234e-017 -1 1 6.123234e-017 15.4583 49.5059)" font-family="'ArialMT'" font-size="6">s</text>
<text transform="matrix(6.123234e-017 -1 1 6.123234e-017 15.4583 41.3145)" font-family="'ArialMT'" font-size="6">)</text>
<text transform="matrix(6.123234e-017 -1 1 6.123234e-017 15.4583 39.3164)" font-family="'ArialMT'" font-size="12"> </text>
<text transform="matrix(6.123234e-017 -1 1 6.123234e-017 11.2766 46.4014)" font-family="'ArialMT'" font-size="4.2">−</text>
<text transform="matrix(6.123234e-017 -1 1 6.123234e-017 11.2766 43.9482)" font-family="'ArialMT'" font-size="4.2">1</text>
<image overflow="visible" enable-background="new    " width="569" height="477" id="imagece37d944db" xlink:href="1C22D934.png"  transform="matrix(0.24 0 0 -0.24 40.0803 154.8008)">
</image>
<g>
	<defs>
		<rect id="SVGID_1_" x="35.251" y="18.96" width="146.119" height="140.92"/>
	</defs>
	<clipPath id="SVGID_2_">
		<use xlink:href="#SVGID_1_"  overflow="visible"/>
	</clipPath>
	
		<path clip-path="url(#SVGID_2_)" fill="none" stroke="#004488" stroke-width="1.5" stroke-linecap="square" stroke-linejoin="round" d="
		M41.894,153.31L174.729,43.406l0,0"/>
</g>
<path fill="none" stroke="#000000" stroke-width="0.8" stroke-linecap="square" d="M35.251,159.88V18.96"/>
<path fill="none" stroke="#000000" stroke-width="0.8" stroke-linecap="square" d="M35.251,159.88H181.37"/>
<text transform="matrix(1 0 0 1 92.2908 11.9756)" font-family="'ArialMT'" font-size="7.2">D</text>
<text transform="matrix(1 0 0 1 97.5266 11.9756)" font-family="'ArialMT'" font-size="7.2">a</text>
<text transform="matrix(1 0 0 1 101.5583 11.9756)" font-family="'ArialMT'" font-size="7.2">t</text>
<text transform="matrix(1 0 0 1 103.573 11.9756)" font-family="'ArialMT'" font-size="7.2">a</text>
<text transform="matrix(1 0 0 1 107.6047 11.9756)" font-family="'ArialMT'" font-size="7.2">s</text>
<text transform="matrix(1 0 0 1 111.2297 11.9756)" font-family="'ArialMT'" font-size="7.2">e</text>
<text transform="matrix(1 0 0 1 115.262 11.9756)" font-family="'ArialMT'" font-size="7.2">t</text>
<text transform="matrix(1 0 0 1 117.2761 11.9756)" font-family="'ArialMT'" font-size="7.2"> </text>
<text transform="matrix(1 0 0 1 119.2766 11.9756)" font-family="'ArialMT'" font-size="12"> </text>
<text transform="matrix(1 0 0 1 119.2908 11.9756)" font-family="'Arial-ItalicMT'" font-size="7.2">D</text>
<path id="m1e8240595a_7_" stroke="#000000" stroke-width="0.8" stroke-linejoin="round" d="M199.922,159.88v3.5"/>
<text transform="matrix(1 0 0 1 198.2537 171.1748)" font-family="'ArialMT'" font-size="6">0</text>
<path id="m1e8240595a_8_" stroke="#000000" stroke-width="0.8" stroke-linejoin="round" d="M221.377,159.88v3.5"/>
<text transform="matrix(1 0 0 1 219.7092 171.1748)" font-family="'ArialMT'" font-size="6">5</text>
<path id="m1e8240595a_9_" stroke="#000000" stroke-width="0.8" stroke-linejoin="round" d="M242.833,159.88v3.5"/>
<text transform="matrix(1 0 0 1 239.4958 171.1748)" font-family="'ArialMT'" font-size="6">10</text>
<path id="m1e8240595a_10_" stroke="#000000" stroke-width="0.8" stroke-linejoin="round" d="M264.288,159.88v3.5"/>
<text transform="matrix(1 0 0 1 260.9514 171.1748)" font-family="'ArialMT'" font-size="6">15</text>
<path id="m1e8240595a_11_" stroke="#000000" stroke-width="0.8" stroke-linejoin="round" d="M285.743,159.88v3.5"/>
<text transform="matrix(1 0 0 1 282.4065 171.1748)" font-family="'ArialMT'" font-size="6">20</text>
<path id="m1e8240595a_12_" stroke="#000000" stroke-width="0.8" stroke-linejoin="round" d="M307.198,159.88v3.5"/>
<text transform="matrix(1 0 0 1 303.8616 171.1748)" font-family="'ArialMT'" font-size="6">25</text>
<path id="m1e8240595a_13_" stroke="#000000" stroke-width="0.8" stroke-linejoin="round" d="M328.654,159.88v3.5"/>
<text transform="matrix(1 0 0 1 325.3167 171.1748)" font-family="'ArialMT'" font-size="6">30</text>
<text transform="matrix(1 0 0 1 209.0857 182.8271)" font-family="'ArialMT'" font-size="6">T</text>
<text transform="matrix(1 0 0 1 212.7507 182.8271)" font-family="'ArialMT'" font-size="6">h</text>
<text transform="matrix(1 0 0 1 216.0876 182.8271)" font-family="'ArialMT'" font-size="6">e</text>
<text transform="matrix(1 0 0 1 219.4246 182.8271)" font-family="'ArialMT'" font-size="6">o</text>
<text transform="matrix(1 0 0 1 222.7615 182.8271)" font-family="'ArialMT'" font-size="6">r</text>
<text transform="matrix(1 0 0 1 224.7595 182.8271)" font-family="'ArialMT'" font-size="6">e</text>
<text transform="matrix(1 0 0 1 228.0964 182.8271)" font-family="'ArialMT'" font-size="6">t</text>
<text transform="matrix(1 0 0 1 229.7634 182.8271)" font-family="'ArialMT'" font-size="6">i</text>
<text transform="matrix(1 0 0 1 231.0964 182.8271)" font-family="'ArialMT'" font-size="6">c</text>
<text transform="matrix(1 0 0 1 234.0964 182.8271)" font-family="'ArialMT'" font-size="6">a</text>
<text transform="matrix(1 0 0 1 237.4333 182.8271)" font-family="'ArialMT'" font-size="6">l</text>
<text transform="matrix(1 0 0 1 238.7664 182.8271)" font-family="'ArialMT'" font-size="6"> </text>
<text transform="matrix(1 0 0 1 240.4333 182.8271)" font-family="'ArialMT'" font-size="6">q</text>
<text transform="matrix(1 0 0 1 243.7703 182.8271)" font-family="'ArialMT'" font-size="6">u</text>
<text transform="matrix(1 0 0 1 247.1072 182.8271)" font-family="'ArialMT'" font-size="6">a</text>
<text transform="matrix(1 0 0 1 250.4441 182.8271)" font-family="'ArialMT'" font-size="6">n</text>
<text transform="matrix(1 0 0 1 253.7815 182.8271)" font-family="'ArialMT'" font-size="6">t</text>
<text transform="matrix(1 0 0 1 255.4475 182.8271)" font-family="'ArialMT'" font-size="6">i</text>
<text transform="matrix(1 0 0 1 256.7815 182.8271)" font-family="'ArialMT'" font-size="6">l</text>
<text transform="matrix(1 0 0 1 258.1135 182.8271)" font-family="'ArialMT'" font-size="6">e</text>
<text transform="matrix(1 0 0 1 261.4514 182.8271)" font-family="'ArialMT'" font-size="6">s</text>
<text transform="matrix(1 0 0 1 264.4514 182.8271)" font-family="'ArialMT'" font-size="6"> </text>
<text transform="matrix(1 0 0 1 266.1174 182.8271)" font-family="'ArialMT'" font-size="6">o</text>
<text transform="matrix(1 0 0 1 269.4553 182.8271)" font-family="'ArialMT'" font-size="6">f</text>
<text transform="matrix(1 0 0 1 271.1213 182.8271)" font-family="'ArialMT'" font-size="6"> </text>
<text transform="matrix(1 0 0 1 272.7893 182.8271)" font-family="'ArialMT'" font-size="6">w</text>
<text transform="matrix(1 0 0 1 277.1213 182.8271)" font-family="'ArialMT'" font-size="6">i</text>
<text transform="matrix(1 0 0 1 278.4553 182.8271)" font-family="'ArialMT'" font-size="6">n</text>
<text transform="matrix(1 0 0 1 281.7913 182.8271)" font-family="'ArialMT'" font-size="6">d</text>
<text transform="matrix(1 0 0 1 285.1292 182.8271)" font-family="'ArialMT'" font-size="6"> </text>
<text transform="matrix(1 0 0 1 286.7952 182.8271)" font-family="'ArialMT'" font-size="6">s</text>
<text transform="matrix(1 0 0 1 289.7952 182.8271)" font-family="'ArialMT'" font-size="6">p</text>
<text transform="matrix(1 0 0 1 293.1331 182.8271)" font-family="'ArialMT'" font-size="6">e</text>
<text transform="matrix(1 0 0 1 296.469 182.8271)" font-family="'ArialMT'" font-size="6">e</text>
<text transform="matrix(1 0 0 1 299.8069 182.8271)" font-family="'ArialMT'" font-size="6">d</text>
<text transform="matrix(1 0 0 1 303.1428 182.8271)" font-family="'ArialMT'" font-size="6"> </text>
<text transform="matrix(1 0 0 1 304.8108 182.8271)" font-family="'ArialMT'" font-size="6">(</text>
<text transform="matrix(1 0 0 1 306.8088 182.8271)" font-family="'ArialMT'" font-size="6">m</text>
<text transform="matrix(1 0 0 1 311.8069 182.8271)" font-family="'ArialMT'" font-size="6"> </text>
<text transform="matrix(1 0 0 1 313.4729 182.8271)" font-family="'ArialMT'" font-size="6">s</text>
<text transform="matrix(1 0 0 1 321.6653 182.8271)" font-family="'ArialMT'" font-size="6">)</text>
<text transform="matrix(1 0 0 1 323.6633 182.8271)" font-family="'ArialMT'" font-size="12"> </text>
<text transform="matrix(1 0 0 1 316.5784 178.6455)" font-family="'ArialMT'" font-size="4.2">−</text>
<text transform="matrix(1 0 0 1 319.0305 178.6455)" font-family="'ArialMT'" font-size="4.2">1</text>
<path id="mbd9bc756a7_8_" stroke="#000000" stroke-width="0.8" stroke-linejoin="round" d="M193.326,153.203h-3.5"/>
<path id="mbd9bc756a7_9_" stroke="#000000" stroke-width="0.8" stroke-linejoin="round" d="M193.326,134.276h-3.5"/>
<path id="mbd9bc756a7_10_" stroke="#000000" stroke-width="0.8" stroke-linejoin="round" d="M193.326,115.349h-3.5"/>
<path id="mbd9bc756a7_11_" stroke="#000000" stroke-width="0.8" stroke-linejoin="round" d="M193.326,96.422h-3.5"/>
<path id="mbd9bc756a7_12_" stroke="#000000" stroke-width="0.8" stroke-linejoin="round" d="M193.326,77.496h-3.5"/>
<path id="mbd9bc756a7_13_" stroke="#000000" stroke-width="0.8" stroke-linejoin="round" d="M193.326,58.569h-3.5"/>
<path id="mbd9bc756a7_14_" stroke="#000000" stroke-width="0.8" stroke-linejoin="round" d="M193.326,39.642h-3.5"/>
<path id="mbd9bc756a7_15_" stroke="#000000" stroke-width="0.8" stroke-linejoin="round" d="M193.326,20.715h-3.5"/>
<image overflow="visible" enable-background="new    " width="570" height="530" id="imaged689d93dbb" xlink:href="1C22D933.png"  transform="matrix(0.24 0 0 -0.24 198.0002 154.7998)">
</image>
<g>
	<defs>
		<rect id="SVGID_3_" x="193.326" y="18.96" width="146.118" height="140.92"/>
	</defs>
	<clipPath id="SVGID_4_">
		<use xlink:href="#SVGID_3_"  overflow="visible"/>
	</clipPath>
	
		<path clip-path="url(#SVGID_4_)" fill="none" stroke="#004488" stroke-width="1.5" stroke-linecap="square" stroke-linejoin="round" d="
		M199.968,153.367l132.835-117.77l0,0"/>
</g>
<path fill="none" stroke="#000000" stroke-width="0.8" stroke-linecap="square" d="M193.326,159.88V18.96"/>
<path fill="none" stroke="#000000" stroke-width="0.8" stroke-linecap="square" d="M193.326,159.88h146.118"/>
<text transform="matrix(1 0 0 1 250.5457 11.9756)" font-family="'ArialMT'" font-size="7.2">D</text>
<text transform="matrix(1 0 0 1 255.7815 11.9756)" font-family="'ArialMT'" font-size="7.2">a</text>
<text transform="matrix(1 0 0 1 259.8127 11.9756)" font-family="'ArialMT'" font-size="7.2">t</text>
<text transform="matrix(1 0 0 1 261.8284 11.9756)" font-family="'ArialMT'" font-size="7.2">a</text>
<text transform="matrix(1 0 0 1 265.8596 11.9756)" font-family="'ArialMT'" font-size="7.2">s</text>
<text transform="matrix(1 0 0 1 269.4846 11.9756)" font-family="'ArialMT'" font-size="7.2">e</text>
<text transform="matrix(1 0 0 1 273.5168 11.9756)" font-family="'ArialMT'" font-size="7.2">t</text>
<text transform="matrix(1 0 0 1 275.5315 11.9756)" font-family="'ArialMT'" font-size="7.2"> </text>
<text transform="matrix(1 0 0 1 277.5315 11.9756)" font-family="'ArialMT'" font-size="12"> </text>
<text transform="matrix(1 0 0 1 277.5452 11.9756)" font-family="'Arial-ItalicMT'" font-size="7.2">E</text>
<path id="m1e8240595a_14_" stroke="#000000" stroke-width="0.8" stroke-linejoin="round" d="M358.028,159.88v3.5"/>
<text transform="matrix(1 0 0 1 356.3596 171.1748)" font-family="'ArialMT'" font-size="6">0</text>
<path id="m1e8240595a_15_" stroke="#000000" stroke-width="0.8" stroke-linejoin="round" d="M377.79,159.88v3.5"/>
<text transform="matrix(1 0 0 1 376.1223 171.1748)" font-family="'ArialMT'" font-size="6">5</text>
<path id="m1e8240595a_16_" stroke="#000000" stroke-width="0.8" stroke-linejoin="round" d="M397.553,159.88v3.5"/>
<text transform="matrix(1 0 0 1 394.217 171.1748)" font-family="'ArialMT'" font-size="6">10</text>
<path id="m1e8240595a_17_" stroke="#000000" stroke-width="0.8" stroke-linejoin="round" d="M417.316,159.88v3.5"/>
<text transform="matrix(1 0 0 1 413.9788 171.1748)" font-family="'ArialMT'" font-size="6">15</text>
<path id="m1e8240595a_18_" stroke="#000000" stroke-width="0.8" stroke-linejoin="round" d="M437.078,159.88v3.5"/>
<text transform="matrix(1 0 0 1 433.7424 171.1748)" font-family="'ArialMT'" font-size="6">20</text>
<path id="m1e8240595a_19_" stroke="#000000" stroke-width="0.8" stroke-linejoin="round" d="M456.841,159.88v3.5"/>
<text transform="matrix(1 0 0 1 453.5042 171.1748)" font-family="'ArialMT'" font-size="6">25</text>
<path id="m1e8240595a_20_" stroke="#000000" stroke-width="0.8" stroke-linejoin="round" d="M476.604,159.88v3.5"/>
<text transform="matrix(1 0 0 1 473.2678 171.1748)" font-family="'ArialMT'" font-size="6">30</text>
<path id="m1e8240595a_21_" stroke="#000000" stroke-width="0.8" stroke-linejoin="round" d="M496.366,159.88v3.5"/>
<text transform="matrix(1 0 0 1 493.0295 171.1748)" font-family="'ArialMT'" font-size="6">35</text>
<text transform="matrix(1 0 0 1 367.1604 182.8271)" font-family="'ArialMT'" font-size="6">T</text>
<text transform="matrix(1 0 0 1 370.8254 182.8271)" font-family="'ArialMT'" font-size="6">h</text>
<text transform="matrix(1 0 0 1 374.1624 182.8271)" font-family="'ArialMT'" font-size="6">e</text>
<text transform="matrix(1 0 0 1 377.4993 182.8271)" font-family="'ArialMT'" font-size="6">o</text>
<text transform="matrix(1 0 0 1 380.8362 182.8271)" font-family="'ArialMT'" font-size="6">r</text>
<text transform="matrix(1 0 0 1 382.8342 182.8271)" font-family="'ArialMT'" font-size="6">e</text>
<text transform="matrix(1 0 0 1 386.1711 182.8271)" font-family="'ArialMT'" font-size="6">t</text>
<text transform="matrix(1 0 0 1 387.8381 182.8271)" font-family="'ArialMT'" font-size="6">i</text>
<text transform="matrix(1 0 0 1 389.1711 182.8271)" font-family="'ArialMT'" font-size="6">c</text>
<text transform="matrix(1 0 0 1 392.1711 182.8271)" font-family="'ArialMT'" font-size="6">a</text>
<text transform="matrix(1 0 0 1 395.5081 182.8271)" font-family="'ArialMT'" font-size="6">l</text>
<text transform="matrix(1 0 0 1 396.8411 182.8271)" font-family="'ArialMT'" font-size="6"> </text>
<text transform="matrix(1 0 0 1 398.5081 182.8271)" font-family="'ArialMT'" font-size="6">q</text>
<text transform="matrix(1 0 0 1 401.845 182.8271)" font-family="'ArialMT'" font-size="6">u</text>
<text transform="matrix(1 0 0 1 405.1819 182.8271)" font-family="'ArialMT'" font-size="6">a</text>
<text transform="matrix(1 0 0 1 408.5188 182.8271)" font-family="'ArialMT'" font-size="6">n</text>
<text transform="matrix(1 0 0 1 411.8557 182.8271)" font-family="'ArialMT'" font-size="6">t</text>
<text transform="matrix(1 0 0 1 413.5227 182.8271)" font-family="'ArialMT'" font-size="6">i</text>
<text transform="matrix(1 0 0 1 414.8557 182.8271)" font-family="'ArialMT'" font-size="6">l</text>
<text transform="matrix(1 0 0 1 416.1887 182.8271)" font-family="'ArialMT'" font-size="6">e</text>
<text transform="matrix(1 0 0 1 419.5256 182.8271)" font-family="'ArialMT'" font-size="6">s</text>
<text transform="matrix(1 0 0 1 422.5256 182.8271)" font-family="'ArialMT'" font-size="6"> </text>
<text transform="matrix(1 0 0 1 424.1926 182.8271)" font-family="'ArialMT'" font-size="6">o</text>
<text transform="matrix(1 0 0 1 427.5295 182.8271)" font-family="'ArialMT'" font-size="6">f</text>
<text transform="matrix(1 0 0 1 429.1965 182.8271)" font-family="'ArialMT'" font-size="6"> </text>
<text transform="matrix(1 0 0 1 430.8635 182.8271)" font-family="'ArialMT'" font-size="6">w</text>
<text transform="matrix(1 0 0 1 435.1965 182.8271)" font-family="'ArialMT'" font-size="6">i</text>
<text transform="matrix(1 0 0 1 436.5295 182.8271)" font-family="'ArialMT'" font-size="6">n</text>
<text transform="matrix(1 0 0 1 439.8665 182.8271)" font-family="'ArialMT'" font-size="6">d</text>
<text transform="matrix(1 0 0 1 443.2034 182.8271)" font-family="'ArialMT'" font-size="6"> </text>
<text transform="matrix(1 0 0 1 444.8704 182.8271)" font-family="'ArialMT'" font-size="6">s</text>
<text transform="matrix(1 0 0 1 447.8704 182.8271)" font-family="'ArialMT'" font-size="6">p</text>
<text transform="matrix(1 0 0 1 451.2073 182.8271)" font-family="'ArialMT'" font-size="6">e</text>
<text transform="matrix(1 0 0 1 454.5442 182.8271)" font-family="'ArialMT'" font-size="6">e</text>
<text transform="matrix(1 0 0 1 457.8811 182.8271)" font-family="'ArialMT'" font-size="6">d</text>
<text transform="matrix(1 0 0 1 461.218 182.8271)" font-family="'ArialMT'" font-size="6"> </text>
<text transform="matrix(1 0 0 1 462.885 182.8271)" font-family="'ArialMT'" font-size="6">(</text>
<text transform="matrix(1 0 0 1 464.8831 182.8271)" font-family="'ArialMT'" font-size="6">m</text>
<text transform="matrix(1 0 0 1 469.8811 182.8271)" font-family="'ArialMT'" font-size="6"> </text>
<text transform="matrix(1 0 0 1 471.5481 182.8271)" font-family="'ArialMT'" font-size="6">s</text>
<text transform="matrix(1 0 0 1 479.7405 182.8271)" font-family="'ArialMT'" font-size="6">)</text>
<text transform="matrix(1 0 0 1 481.7385 182.8271)" font-family="'ArialMT'" font-size="12"> </text>
<text transform="matrix(1 0 0 1 474.6526 178.6455)" font-family="'ArialMT'" font-size="4.2">−</text>
<text transform="matrix(1 0 0 1 477.1057 178.6455)" font-family="'ArialMT'" font-size="4.2">1</text>
<path id="mbd9bc756a7_16_" stroke="#000000" stroke-width="0.8" stroke-linejoin="round" d="M351.401,153.203h-3.5"/>
<path id="mbd9bc756a7_17_" stroke="#000000" stroke-width="0.8" stroke-linejoin="round" d="M351.401,134.276h-3.5"/>
<path id="mbd9bc756a7_18_" stroke="#000000" stroke-width="0.8" stroke-linejoin="round" d="M351.401,115.349h-3.5"/>
<path id="mbd9bc756a7_19_" stroke="#000000" stroke-width="0.8" stroke-linejoin="round" d="M351.401,96.422h-3.5"/>
<path id="mbd9bc756a7_20_" stroke="#000000" stroke-width="0.8" stroke-linejoin="round" d="M351.401,77.496h-3.5"/>
<path id="mbd9bc756a7_21_" stroke="#000000" stroke-width="0.8" stroke-linejoin="round" d="M351.401,58.569h-3.5"/>
<path id="mbd9bc756a7_22_" stroke="#000000" stroke-width="0.8" stroke-linejoin="round" d="M351.401,39.642h-3.5"/>
<path id="mbd9bc756a7_23_" stroke="#000000" stroke-width="0.8" stroke-linejoin="round" d="M351.401,20.715h-3.5"/>
<image overflow="visible" enable-background="new    " width="569" height="464" id="image6a33a45b95" xlink:href="1C22D93E.png"  transform="matrix(0.24 0 0 -0.24 356.1584 154.5605)">
</image>
<g>
	<defs>
		<rect id="SVGID_5_" x="351.401" y="18.96" width="146.119" height="140.92"/>
	</defs>
	<clipPath id="SVGID_6_">
		<use xlink:href="#SVGID_5_"  overflow="visible"/>
	</clipPath>
	
		<path clip-path="url(#SVGID_6_)" fill="none" stroke="#004488" stroke-width="1.5" stroke-linecap="square" stroke-linejoin="round" d="
		M358.043,153.475L490.878,25.365l0,0"/>
</g>
<path fill="none" stroke="#000000" stroke-width="0.8" stroke-linecap="square" d="M351.401,159.88V18.96"/>
<path fill="none" stroke="#000000" stroke-width="0.8" stroke-linecap="square" d="M351.401,159.88H497.52"/>
<text transform="matrix(1 0 0 1 408.8362 11.9756)" font-family="'ArialMT'" font-size="7.2">D</text>
<text transform="matrix(1 0 0 1 414.0725 11.9756)" font-family="'ArialMT'" font-size="7.2">a</text>
<text transform="matrix(1 0 0 1 418.1038 11.9756)" font-family="'ArialMT'" font-size="7.2">t</text>
<text transform="matrix(1 0 0 1 420.1184 11.9756)" font-family="'ArialMT'" font-size="7.2">a</text>
<text transform="matrix(1 0 0 1 424.1506 11.9756)" font-family="'ArialMT'" font-size="7.2">s</text>
<text transform="matrix(1 0 0 1 427.7756 11.9756)" font-family="'ArialMT'" font-size="7.2">e</text>
<text transform="matrix(1 0 0 1 431.8079 11.9756)" font-family="'ArialMT'" font-size="7.2">t</text>
<text transform="matrix(1 0 0 1 433.8225 11.9756)" font-family="'ArialMT'" font-size="7.2"> </text>
<text transform="matrix(1 0 0 1 435.8225 11.9756)" font-family="'ArialMT'" font-size="12"> </text>
<text transform="matrix(1 0 0 1 435.8362 11.9756)" font-family="'Arial-ItalicMT'" font-size="7.2">F</text>
<path id="m1e8240595a_22_" stroke="#000000" stroke-width="0.8" stroke-linejoin="round" d="M41.668,333.621v3.5"/>
<text transform="matrix(1 0 0 1 39.9998 344.916)" font-family="'ArialMT'" font-size="6">0</text>
<path id="m1e8240595a_23_" stroke="#000000" stroke-width="0.8" stroke-linejoin="round" d="M60.654,333.621v3.5"/>
<text transform="matrix(1 0 0 1 58.9851 344.916)" font-family="'ArialMT'" font-size="6">2</text>
<path id="m1e8240595a_24_" stroke="#000000" stroke-width="0.8" stroke-linejoin="round" d="M79.639,333.621v3.5"/>
<text transform="matrix(1 0 0 1 77.9705 344.916)" font-family="'ArialMT'" font-size="6">4</text>
<path id="m1e8240595a_25_" stroke="#000000" stroke-width="0.8" stroke-linejoin="round" d="M98.624,333.621v3.5"/>
<text transform="matrix(1 0 0 1 96.9558 344.916)" font-family="'ArialMT'" font-size="6">6</text>
<path id="m1e8240595a_26_" stroke="#000000" stroke-width="0.8" stroke-linejoin="round" d="M117.61,333.621v3.5"/>
<text transform="matrix(1 0 0 1 115.9412 344.916)" font-family="'ArialMT'" font-size="6">8</text>
<path id="m1e8240595a_27_" stroke="#000000" stroke-width="0.8" stroke-linejoin="round" d="M136.595,333.621v3.5"/>
<text transform="matrix(1 0 0 1 133.2581 344.916)" font-family="'ArialMT'" font-size="6">10</text>
<path id="m1e8240595a_28_" stroke="#000000" stroke-width="0.8" stroke-linejoin="round" d="M155.58,333.621v3.5"/>
<text transform="matrix(1 0 0 1 152.2434 344.916)" font-family="'ArialMT'" font-size="6">12</text>
<path id="m1e8240595a_29_" stroke="#000000" stroke-width="0.8" stroke-linejoin="round" d="M174.566,333.621v3.5"/>
<text transform="matrix(1 0 0 1 171.2288 344.916)" font-family="'ArialMT'" font-size="6">14</text>
<text transform="matrix(1 0 0 1 40.9441 354.4766)" font-family="'ArialMT'" font-size="6">Theoretical quantiles of significant wave height (m)</text>
<path id="mbd9bc756a7_24_" stroke="#000000" stroke-width="0.8" stroke-linejoin="round" d="M35.251,327.067h-3.5"/>
<text transform="matrix(1 0 0 1 19.9104 329.2148)" font-family="'ArialMT'" font-size="6">0.0</text>
<path id="mbd9bc756a7_25_" stroke="#000000" stroke-width="0.8" stroke-linejoin="round" d="M35.251,310.088h-3.5"/>
<text transform="matrix(1 0 0 1 19.9104 312.2354)" font-family="'ArialMT'" font-size="6">2.5</text>
<path id="mbd9bc756a7_26_" stroke="#000000" stroke-width="0.8" stroke-linejoin="round" d="M35.251,293.108h-3.5"/>
<text transform="matrix(1 0 0 1 19.9104 295.2559)" font-family="'ArialMT'" font-size="6">5.0</text>
<path id="mbd9bc756a7_27_" stroke="#000000" stroke-width="0.8" stroke-linejoin="round" d="M35.251,276.129h-3.5"/>
<text transform="matrix(1 0 0 1 19.9104 278.2764)" font-family="'ArialMT'" font-size="6">7.5</text>
<path id="mbd9bc756a7_28_" stroke="#000000" stroke-width="0.8" stroke-linejoin="round" d="M35.251,259.148h-3.5"/>
<text transform="matrix(1 0 0 1 16.5735 261.2959)" font-family="'ArialMT'" font-size="6">10.0</text>
<path id="mbd9bc756a7_29_" stroke="#000000" stroke-width="0.8" stroke-linejoin="round" d="M35.251,242.17h-3.5"/>
<text transform="matrix(1 0 0 1 16.5735 244.3164)" font-family="'ArialMT'" font-size="6">12.5</text>
<path id="mbd9bc756a7_30_" stroke="#000000" stroke-width="0.8" stroke-linejoin="round" d="M35.251,225.189h-3.5"/>
<text transform="matrix(1 0 0 1 16.5735 227.3369)" font-family="'ArialMT'" font-size="6">15.0</text>
<path id="mbd9bc756a7_31_" stroke="#000000" stroke-width="0.8" stroke-linejoin="round" d="M35.251,208.21h-3.5"/>
<text transform="matrix(1 0 0 1 16.5735 210.3574)" font-family="'ArialMT'" font-size="6">17.5</text>
<text transform="matrix(6.123234e-017 -1 1 6.123234e-017 11.3118 323.3564)" font-family="'ArialMT'" font-size="6">Ordered values of significant wave height (m)</text>
<image overflow="visible" enable-background="new    " width="569" height="315" id="image4333030dea" xlink:href="1C22D931.png"  transform="matrix(0.24 0 0 -0.24 40.0803 328.3203)">
</image>
<g>
	<defs>
		<rect id="SVGID_7_" x="35.251" y="192.701" width="146.119" height="140.92"/>
	</defs>
	<clipPath id="SVGID_8_">
		<use xlink:href="#SVGID_7_"  overflow="visible"/>
	</clipPath>
	
		<path clip-path="url(#SVGID_8_)" fill="none" stroke="#004488" stroke-width="1.5" stroke-linecap="square" stroke-linejoin="round" d="
		M41.894,327.051l132.835-97.125l0,0"/>
</g>
<path fill="none" stroke="#000000" stroke-width="0.8" stroke-linecap="square" d="M35.251,333.621v-140.92"/>
<path fill="none" stroke="#000000" stroke-width="0.8" stroke-linecap="square" d="M35.251,333.621H181.37"/>
<path id="m1e8240595a_30_" stroke="#000000" stroke-width="0.8" stroke-linejoin="round" d="M199.694,333.621v3.5"/>
<text transform="matrix(1 0 0 1 198.0247 344.916)" font-family="'ArialMT'" font-size="6">0</text>
<path id="m1e8240595a_31_" stroke="#000000" stroke-width="0.8" stroke-linejoin="round" d="M218.871,333.621v3.5"/>
<text transform="matrix(1 0 0 1 217.2024 344.916)" font-family="'ArialMT'" font-size="6">2</text>
<path id="m1e8240595a_32_" stroke="#000000" stroke-width="0.8" stroke-linejoin="round" d="M238.048,333.621v3.5"/>
<text transform="matrix(1 0 0 1 236.3796 344.916)" font-family="'ArialMT'" font-size="6">4</text>
<path id="m1e8240595a_33_" stroke="#000000" stroke-width="0.8" stroke-linejoin="round" d="M257.226,333.621v3.5"/>
<text transform="matrix(1 0 0 1 255.5569 344.916)" font-family="'ArialMT'" font-size="6">6</text>
<path id="m1e8240595a_34_" stroke="#000000" stroke-width="0.8" stroke-linejoin="round" d="M276.404,333.621v3.5"/>
<text transform="matrix(1 0 0 1 274.7346 344.916)" font-family="'ArialMT'" font-size="6">8</text>
<path id="m1e8240595a_35_" stroke="#000000" stroke-width="0.8" stroke-linejoin="round" d="M295.58,333.621v3.5"/>
<text transform="matrix(1 0 0 1 292.2434 344.916)" font-family="'ArialMT'" font-size="6">10</text>
<path id="m1e8240595a_36_" stroke="#000000" stroke-width="0.8" stroke-linejoin="round" d="M314.758,333.621v3.5"/>
<text transform="matrix(1 0 0 1 311.4202 344.916)" font-family="'ArialMT'" font-size="6">12</text>
<path id="m1e8240595a_37_" stroke="#000000" stroke-width="0.8" stroke-linejoin="round" d="M333.935,333.621v3.5"/>
<text transform="matrix(1 0 0 1 330.5979 344.916)" font-family="'ArialMT'" font-size="6">14</text>
<text transform="matrix(1 0 0 1 199.0188 354.4766)" font-family="'ArialMT'" font-size="6">Theoretical quantiles of significant wave height (m)</text>
<path id="mbd9bc756a7_32_" stroke="#000000" stroke-width="0.8" stroke-linejoin="round" d="M193.326,327.067h-3.5"/>
<path id="mbd9bc756a7_33_" stroke="#000000" stroke-width="0.8" stroke-linejoin="round" d="M193.326,310.088h-3.5"/>
<path id="mbd9bc756a7_34_" stroke="#000000" stroke-width="0.8" stroke-linejoin="round" d="M193.326,293.108h-3.5"/>
<path id="mbd9bc756a7_35_" stroke="#000000" stroke-width="0.8" stroke-linejoin="round" d="M193.326,276.129h-3.5"/>
<path id="mbd9bc756a7_36_" stroke="#000000" stroke-width="0.8" stroke-linejoin="round" d="M193.326,259.148h-3.5"/>
<path id="mbd9bc756a7_37_" stroke="#000000" stroke-width="0.8" stroke-linejoin="round" d="M193.326,242.17h-3.5"/>
<path id="mbd9bc756a7_38_" stroke="#000000" stroke-width="0.8" stroke-linejoin="round" d="M193.326,225.189h-3.5"/>
<path id="mbd9bc756a7_39_" stroke="#000000" stroke-width="0.8" stroke-linejoin="round" d="M193.326,208.21h-3.5"/>
<image overflow="visible" enable-background="new    " width="570" height="325" id="imagea045f6e690" xlink:href="1C22D932.png"  transform="matrix(0.24 0 0 -0.24 198.0002 328.0801)">
</image>
<g>
	<defs>
		<rect id="SVGID_9_" x="193.326" y="192.701" width="146.118" height="140.92"/>
	</defs>
	<clipPath id="SVGID_10_">
		<use xlink:href="#SVGID_9_"  overflow="visible"/>
	</clipPath>
	
		<path clip-path="url(#SVGID_10_)" fill="none" stroke="#004488" stroke-width="1.5" stroke-linecap="square" stroke-linejoin="round" d="
		M199.968,327.216l132.835-97.434l0,0"/>
</g>
<path fill="none" stroke="#000000" stroke-width="0.8" stroke-linecap="square" d="M193.326,333.621v-140.92"/>
<path fill="none" stroke="#000000" stroke-width="0.8" stroke-linecap="square" d="M193.326,333.621h146.118"/>
<path id="m1e8240595a_38_" stroke="#000000" stroke-width="0.8" stroke-linejoin="round" d="M357.581,333.621v3.5"/>
<text transform="matrix(1 0 0 1 355.9124 344.916)" font-family="'ArialMT'" font-size="6">0</text>
<path id="m1e8240595a_39_" stroke="#000000" stroke-width="0.8" stroke-linejoin="round" d="M393.419,333.621v3.5"/>
<text transform="matrix(1 0 0 1 391.7502 344.916)" font-family="'ArialMT'" font-size="6">5</text>
<path id="m1e8240595a_40_" stroke="#000000" stroke-width="0.8" stroke-linejoin="round" d="M429.257,333.621v3.5"/>
<text transform="matrix(1 0 0 1 425.9202 344.916)" font-family="'ArialMT'" font-size="6">10</text>
<path id="m1e8240595a_41_" stroke="#000000" stroke-width="0.8" stroke-linejoin="round" d="M465.095,333.621v3.5"/>
<text transform="matrix(1 0 0 1 461.7581 344.916)" font-family="'ArialMT'" font-size="6">15</text>
<text transform="matrix(1 0 0 1 357.094 354.4766)" font-family="'ArialMT'" font-size="6">Theoretical quantiles of significant wave height (m)</text>
<path id="mbd9bc756a7_40_" stroke="#000000" stroke-width="0.8" stroke-linejoin="round" d="M351.401,327.067h-3.5"/>
<path id="mbd9bc756a7_41_" stroke="#000000" stroke-width="0.8" stroke-linejoin="round" d="M351.401,310.088h-3.5"/>
<path id="mbd9bc756a7_42_" stroke="#000000" stroke-width="0.8" stroke-linejoin="round" d="M351.401,293.108h-3.5"/>
<path id="mbd9bc756a7_43_" stroke="#000000" stroke-width="0.8" stroke-linejoin="round" d="M351.401,276.129h-3.5"/>
<path id="mbd9bc756a7_44_" stroke="#000000" stroke-width="0.8" stroke-linejoin="round" d="M351.401,259.148h-3.5"/>
<path id="mbd9bc756a7_45_" stroke="#000000" stroke-width="0.8" stroke-linejoin="round" d="M351.401,242.17h-3.5"/>
<path id="mbd9bc756a7_46_" stroke="#000000" stroke-width="0.8" stroke-linejoin="round" d="M351.401,225.189h-3.5"/>
<path id="mbd9bc756a7_47_" stroke="#000000" stroke-width="0.8" stroke-linejoin="round" d="M351.401,208.21h-3.5"/>
<image overflow="visible" enable-background="new    " width="569" height="435" id="imagef6c2d00802" xlink:href="1C22D930.png"  transform="matrix(0.24 0 0 -0.24 356.1584 327.3594)">
</image>
<g>
	<defs>
		<rect id="SVGID_11_" x="351.401" y="192.701" width="146.119" height="140.92"/>
	</defs>
	<clipPath id="SVGID_12_">
		<use xlink:href="#SVGID_11_"  overflow="visible"/>
	</clipPath>
	
		<path clip-path="url(#SVGID_12_)" fill="none" stroke="#004488" stroke-width="1.5" stroke-linecap="square" stroke-linejoin="round" d="
		M358.043,326.814l132.835-127.707l0,0"/>
</g>
<path fill="none" stroke="#000000" stroke-width="0.8" stroke-linecap="square" d="M351.401,333.621v-140.92"/>
<path fill="none" stroke="#000000" stroke-width="0.8" stroke-linecap="square" d="M351.401,333.621H497.52"/>
</svg>
